<svg xmlns="http://www.w3.org/2000/svg" viewBox="0 0 480 480" role="img" aria-labelledby="title desc">
  <title id="title">NutriCore product placeholder</title>
  <desc id="desc">Placeholder product image used when no product photo is available.</desc>
  <defs>
    <linearGradient id="bg" x1="0" x2="1" y1="0" y2="1">
      <stop offset="0%" stop-color="#0f172a" />
      <stop offset="100%" stop-color="#14532d" />
    </linearGradient>
    <linearGradient id="accent" x1="0" x2="1" y1="0" y2="1">
      <stop offset="0%" stop-color="#22c55e" />
      <stop offset="100%" stop-color="#86efac" />
    </linearGradient>
  </defs>
  <rect width="480" height="480" rx="48" fill="url(#bg)" />
  <circle cx="240" cy="170" r="88" fill="#ffffff" fill-opacity="0.06" />
  <path d="M188 120h104c24 0 44 20 44 44v137c0 19-15 34-34 34H178c-19 0-34-15-34-34V164c0-24 20-44 44-44Z" fill="#020617" fill-opacity="0.44" stroke="#22c55e" stroke-opacity="0.35" stroke-width="8" />
  <path d="M208 111c0-18 14-32 32-32s32 14 32 32" fill="none" stroke="url(#accent)" stroke-linecap="round" stroke-width="14" />
  <path d="M175 212h130" stroke="#86efac" stroke-linecap="round" stroke-opacity="0.65" stroke-width="14" />
  <path d="M175 248h130" stroke="#86efac" stroke-linecap="round" stroke-opacity="0.45" stroke-width="14" />
  <path d="M175 284h86" stroke="#86efac" stroke-linecap="round" stroke-opacity="0.3" stroke-width="14" />
  <text x="240" y="390" text-anchor="middle" fill="#dcfce7" font-family="Arial, Helvetica, sans-serif" font-size="34" font-weight="700" letter-spacing="2">NUTRICORE</text>
</svg>
